<svg xmlns="http://www.w3.org/2000/svg" viewBox="0 0 400 300">
  <path d="M45.7 43.4c-31.1 31.1-45.7 86.6-45.7 166.6h29.9c0-60.9 8.8-105.7 26.5-134.4 17.7-28.7 45.7-43 84.1-43 38.4 0 66.4 14.3 84.1 43 17.7 28.7 26.5 73.5 26.5 134.4h29.9c0-80-14.6-135.5-45.7-166.6C204.9 12.3 162.7 0 110.5 0 58.3 0 16.1 12.3-15 43.4h60.7zm254.3 0c31.1 31.1 45.7 86.6 45.7 166.6h-29.9c0-60.9-8.8-105.7-26.5-134.4-17.7-28.7-45.7-43-84.1-43-38.4 0-66.4 14.3-84.1 43-17.7 28.7-26.5 73.5-26.5 134.4H65.6c0-80 14.6-135.5 45.7-166.6C142.4 12.3 184.6 0 236.8 0c52.2 0 94.4 12.3 125.5 43.4h-62.3z" fill="#000"/>
</svg>